PathFileType	4	(X/Y/Z)	C:\Users\°ÂÌØÂü\Desktop\20210112\bx_n_5_1801-Unnamed.trc
DataRate	CameraRate	NumFrames	NumMarkers	Units	OrigDataRate	OrigDataStartFrame	OrigNumFrames
50.00	50.00	       5	0	mm	50.00	116	       460
Frame#	Time	
		

116	2.300	-811.02484	282.35483	683.39636	-697.85669	-41.30489	734.25519	-591.42963	85.06857	915.49005	-525.79565	159.38777	538.42572	-548.24976	37.39403	544.49872	-529.16040	-20.58695	468.70834	-699.63446	148.95648	206.99521	-590.36530	217.73967	172.91014	-702.93701	71.87035	211.04948	-626.05231	268.52649	469.27670	-577.41248	-72.36974	517.84137	-649.70203	-68.32585	161.99963	-516.90869	223.48785	481.25989	-756.98615	222.96437	207.64542				-882.70435	296.04880	144.58080	-670.15070	53.02996	155.84863	-596.37463	25.06922	167.39583	-547.72949	-30.13552	162.80380	-673.39941	171.78699	152.76712	-608.04504	-74.51527	159.26534	-660.50781	296.58905	158.48167	-624.82855	305.16959	158.32027	-554.29132	256.97101	162.25513	-528.51904	304.58646	146.58948	-413.58646	105.27110	1398.84045	-528.83484	268.46600	1105.47705	-568.18787	266.95990	524.77216	-518.13202	-72.51564	142.89288	-787.32800	46.32658	179.21939	-789.17773	171.26341	188.95946	-515.41125	-76.63625	1111.72314	-1008.31873	87.78468	817.12494	-642.65204	-70.74508	457.95294	-746.59375	-15.79022	207.55577	-875.70392	-78.69103	141.07449	-590.93420	-73.64561	554.05121							-809.38037	-97.24763	696.94672				-798.31628	217.69786	799.91809	-675.92365	225.06923	728.26257				-713.91766	-94.68333	632.14673	
117	2.320	-810.78107	281.67432	690.88763	-695.95715	-42.75064	738.36572	-591.22302	83.63739	929.08246	-527.85229	158.93083	540.02966	-549.97858	37.16558	545.25665				-700.15454	148.88885	207.15775	-590.68115	218.03627	172.77451	-703.25397	71.60937	211.76254	-628.57538	268.44629	471.08682	-579.65533	-72.29292	519.47314	-649.70172	-68.48961	161.72485	-519.01086	223.07866	480.95190	-757.69647	223.34413	207.80106				-882.80243	296.12894	144.66141	-670.15070	53.02996	155.84863	-596.28467	25.07032	167.44623	-547.90063	-30.06606	162.63217	-673.31262	171.73129	152.78934	-608.11731	-74.89082	159.07780	-660.19318	297.23682	158.75500	-624.79095	305.38843	158.49803	-554.62646	256.78391	162.26064	-528.42596	304.34100	146.44370	-417.74884	104.14306	1413.52197	-530.66852	267.11295	1119.35669	-570.81952	266.61032	526.37445	-518.05609	-72.29910	142.53720	-787.38098	46.15874	179.34557	-789.60236	171.12050	189.21269	-517.12122	-77.71780	1125.10071	-1007.05988	85.73409	826.79944	-643.96478	-70.37469	458.16000	-746.97528	-16.13256	206.84785	-875.87671	-78.61211	140.98958	-592.73761	-74.11216	556.02722							-808.01648	-98.18362	703.82849				-797.31537	216.51143	809.93170	-674.49469	225.11917	732.54865				-714.02985	-94.94806	635.88940	
118	2.340	-810.65021	280.45676	698.16284	-693.32538	-44.29096	742.91632	-590.93396	82.62643	942.23206	-530.17480	159.28542	541.53674	-551.88202	37.52536	546.26819				-700.57996	149.10117	207.43993	-590.79254	218.25247	172.75000	-703.22247	71.47864	211.83194	-630.93597	268.24652	472.59906	-581.90320	-72.07649	520.81342	-649.83435	-68.69862	161.47617	-521.85107	223.33681	484.09427	-757.88770	223.89938	207.95842				-882.60437	296.12555	144.77605	-670.34247	53.05621	156.07545	-596.17950	25.18724	167.54555	-547.83240	-30.07210	162.69994	-673.39941	171.78699	152.76712	-608.19659	-75.06322	158.76297	-660.43604	297.41586	158.62791	-625.14764	305.51733	158.56909	-554.36084	257.11835	162.74385	-528.17725	304.56635	146.65282	-422.12216	102.92503	1428.56775	-532.75079	266.35236	1133.79309	-574.20935	266.06235	528.62036	-518.08734	-72.15440	142.82417	-787.34418	45.96753	179.23273	-790.51721	171.57709	189.79991	-519.53174	-78.74842	1139.31042	-1005.65656	84.37325	836.35358	-645.54474	-69.89692	459.42676	-747.59186	-16.57855	206.97745	-875.67786	-78.65668	141.12025	-595.12762	-75.46754	558.51990							-807.02045	-98.76435	710.15326				-796.30908	216.10149	820.13672	-673.41583	224.96275	737.17786				-714.49420	-95.16897	640.22437	
119	2.360	-810.23657	278.93671	705.75836	-691.84528	-45.29626	747.14069	-589.94403	82.45912	956.24243	-532.82178	158.92268	543.21313	-553.79736	37.07455	547.63062				-700.49176	149.56339	207.26114	-590.77020	218.36479	172.93761	-703.32074	70.47679	211.34798	-633.93024	267.05975	473.40436	-584.36749	-72.17074	522.40851	-649.86554	-68.77951	161.51480	-524.66095	222.49530	485.35474	-758.15192	224.17662	208.03241				-882.55676	296.08594	144.72644	-670.51135	53.05612	156.19734	-596.39594	25.20926	167.72672	-548.18475	-30.06647	162.47145	-673.36493	171.85927	152.86223	-608.19379	-75.38261	158.58603	-660.45837	297.64047	158.66447	-624.89459	305.74399	158.42406	-554.98749	256.82721	162.33653	-528.30267	304.43021	146.56764	-426.33374	101.96900	1443.66504	-535.18243	265.75391	1148.15222	-577.26062	265.38126	530.78149	-517.66968	-72.99953	143.29620	-787.21069	45.92405	179.08948	-790.93091	171.32808	189.87529	-522.16284	-80.38689	1153.20630	-1003.98041	82.70513	846.41644	-648.69733	-70.99333	460.95428	-748.00031	-16.45687	206.48521	-875.85034	-78.68372	141.27127	-597.11804	-74.58847	559.98676							-805.96674	-99.32994	716.82434				-795.19330	215.15192	830.36267	-672.85925	225.00635	742.04260				-714.76758	-95.41378	644.33105	
120	2.380	-810.33264	278.15860	713.26941	-690.01697	-46.58917	751.73346	-589.72485	81.25871	969.87128	-535.30652	158.70392	544.90344	-556.11945	36.53032	548.96613				-700.60663	149.20789	207.53136	-591.04291	218.31140	172.83699	-703.60065	70.60801	211.79187	-636.74615	266.70297	475.29999	-586.56091	-72.61585	524.18103	-649.94873	-68.84074	161.51137				-758.44617	224.08054	207.69826				-882.81879	296.30930	144.96667	-670.65320	53.03154	156.33673	-596.45758	25.11830	167.70164	-547.87238	-30.53477	163.16661	-673.59259	171.98354	153.05151	-608.03406	-75.50347	158.43922	-660.52539	297.66980	158.60512	-624.82092	306.04819	158.61789	-554.61578	257.04166	162.72948	-528.23596	304.11826	146.24495	-430.81802	100.77645	1458.84888	-537.42133	265.11945	1161.99683	-580.27344	264.81818	533.02954	-517.91901	-72.76337	143.56497	-787.17603	45.80040	179.12735	-790.28662	171.99173	189.22061	-524.05548	-81.12602	1167.29834	-1001.96240	81.08630	856.17389	-649.71716	-70.40020	461.31046	-747.94556	-16.59474	206.31590	-876.04803	-78.48602	141.09680	-599.32745	-74.68087	561.81586							-804.80267	-100.19364	723.52271				-793.92694	213.85751	840.61591	-671.37976	223.91939	746.59790				-715.02692	-95.92140	649.02307	
